<svg width="67" height="67" viewBox="0 0 67 67" fill="none" xmlns="http://www.w3.org/2000/svg">
<circle cx="33.5" cy="33.5" r="33.5" fill="#D3E5FF"/>
<path d="M44.3158 31.2804V27.5963H41.8596V31.2804H38.1754V33.7365H41.8596V37.4206H44.3158V33.7365H48V31.2804H44.3158ZM34.8596 35.4557L33.5087 34.4733C33.0175 34.1049 32.5263 33.6136 32.5263 32.754C32.5263 31.8944 33.1404 31.1576 33.7544 30.7892C35.3509 29.5611 36.9474 28.2103 36.9474 25.5086C36.9474 22.9297 35.3509 21.4561 34.4912 20.7193H36.5789L38.0526 19H30.4386C25.0351 19 22.3333 22.4385 22.3333 26.1226C22.3333 28.9471 24.5439 32.0172 28.4737 32.0172H29.4561C29.3333 32.3856 28.9649 32.9996 28.9649 33.6136C28.9649 34.8417 29.4561 35.3329 30.0702 36.0697C28.3509 36.1925 25.1579 36.5609 22.8246 38.0346C20.614 39.3854 20 41.2275 20 42.5783C20 45.4028 22.5789 48.1045 28.1053 48.1045C34.7368 48.1045 37.9299 44.4204 37.9299 40.8591C37.9298 38.2802 36.5789 36.9293 34.8596 35.4557ZM25.5263 24.2806C25.5263 21.5789 27.1228 20.3508 28.8421 20.3508C32.0351 20.3508 33.7544 24.649 33.7544 27.105C33.7544 30.2979 31.1754 30.912 30.193 30.912C27.1228 30.912 25.5263 27.105 25.5263 24.2806ZM29.9473 46.3852C25.8947 46.3852 23.3157 44.5432 23.3157 41.8415C23.3157 39.1398 25.7719 38.2801 26.5087 37.9117C28.1052 37.4205 30.1929 37.2977 30.5614 37.2977C30.9298 37.2977 31.1754 37.2977 31.421 37.2977C34.3684 39.3854 35.5964 40.245 35.5964 42.2099C35.5964 44.5432 33.2632 46.3852 29.9473 46.3852Z" fill="white"/>
</svg>
