<svg width="67" height="67" viewBox="0 0 67 67" fill="none" xmlns="http://www.w3.org/2000/svg">
<circle cx="33.5" cy="33.5" r="33.5" fill="#D3E5FF"/>
<path d="M49.6923 24.0484C48.5137 24.5654 47.2579 24.9081 45.9486 25.0744C47.2955 24.2702 48.3236 23.0065 48.8069 21.4833C47.5511 22.232 46.1645 22.7609 44.6869 23.056C43.4944 21.7864 41.7949 21 39.9409 21C36.3439 21 33.448 23.9197 33.448 27.4989C33.448 28.0139 33.4916 28.5091 33.5985 28.9805C28.197 28.7171 23.4174 26.1282 20.2066 22.1845C19.646 23.1571 19.3172 24.2703 19.3172 25.4686C19.3172 27.7188 20.476 29.7134 22.2032 30.8682C21.1593 30.8484 20.1353 30.5453 19.2677 30.068C19.2677 30.0878 19.2677 30.1135 19.2677 30.1393C19.2677 33.2966 21.5198 35.9192 24.4731 36.5233C23.9443 36.6679 23.3679 36.7372 22.7697 36.7372C22.3537 36.7372 21.9338 36.7134 21.5396 36.6263C22.3815 39.1993 24.7703 41.0909 27.6107 41.1523C25.4001 42.8816 22.5934 43.9234 19.5549 43.9234C19.0221 43.9234 18.511 43.8997 18 43.8343C20.8781 45.6903 24.2889 46.75 27.9672 46.75C39.9231 46.75 46.4597 36.8462 46.4597 28.2615C46.4597 27.9743 46.4497 27.697 46.4359 27.4217C47.7254 26.5065 48.8088 25.3636 49.6923 24.0484Z" fill="white"/>
</svg>
