<svg width="113" height="53" viewBox="0 0 113 53" fill="none" xmlns="http://www.w3.org/2000/svg">
<path d="M4.12 23.48L2.88 19.8C3.36 19.48 4.02667 19.1867 4.88 18.92C5.76 18.6533 6.64 18.4533 7.52 18.32C8.4 18.16 9.10667 18.08 9.64 18.08C11.16 18.08 12.5333 18.3867 13.76 19C14.9867 19.6133 15.96 20.44 16.68 21.48C17.4 22.52 17.76 23.7067 17.76 25.04V38H14.76L14.08 36.04C13.3867 36.7067 12.56 37.28 11.6 37.76C10.64 38.24 9.65333 38.48 8.64 38.48C6.32 38.48 4.6 37.9067 3.48 36.76C2.36 35.5867 1.8 34.1067 1.8 32.32C1.8 30.3467 2.46667 28.84 3.8 27.8C5.13333 26.7333 6.86667 26.2 9 26.2H13.24V26.08C13.2133 24.9333 12.9333 24 12.4 23.28C11.8667 22.5333 10.9733 22.16 9.72 22.16C8.70667 22.16 7.69333 22.3067 6.68 22.6C5.69333 22.8667 4.84 23.16 4.12 23.48ZM5.72 32.32C5.72 32.96 5.96 33.56 6.44 34.12C6.94667 34.6533 7.65333 34.92 8.56 34.92C9.44 34.92 10.28 34.72 11.08 34.32C11.88 33.92 12.6133 33.3733 13.28 32.68V29.2H8.92C7.88 29.2 7.08 29.52 6.52 30.16C5.98667 30.7733 5.72 31.4933 5.72 32.32ZM26.7219 38H22.2419V18.6H24.6419L26.1219 21.8C26.6285 21.3467 27.2552 20.88 28.0019 20.4C28.7752 19.8933 29.5752 19.4667 30.4019 19.12C31.2285 18.7733 31.9885 18.6 32.6819 18.6L33.6019 22.2C32.6419 22.2 31.5085 22.5467 30.2019 23.24C28.9219 23.9067 27.7619 24.7067 26.7219 25.64V38ZM39.0644 38H36.7044V10.2L41.1844 9.76V19.12C42.4644 18.4267 43.731 18.08 44.9844 18.08C46.9844 18.08 48.7044 18.5067 50.1444 19.36C51.611 20.1867 52.731 21.3733 53.5044 22.92C54.3044 24.4667 54.7044 26.28 54.7044 28.36C54.7044 30.36 54.3044 32.1333 53.5044 33.68C52.7044 35.2 51.571 36.3867 50.1044 37.24C48.6377 38.0933 46.9044 38.52 44.9044 38.52C44.211 38.52 43.411 38.36 42.5044 38.04C41.5977 37.72 40.7577 37.28 39.9844 36.72L39.0644 38ZM44.9044 21.92C44.1844 21.92 43.5177 22.0267 42.9044 22.24C42.3177 22.4533 41.7444 22.7733 41.1844 23.2V33.44C41.7444 33.8667 42.331 34.1733 42.9444 34.36C43.5577 34.5467 44.211 34.64 44.9044 34.64C46.531 34.64 47.7977 34.04 48.7044 32.84C49.611 31.64 50.0644 30.1467 50.0644 28.36C50.0644 26.4667 49.611 24.92 48.7044 23.72C47.8244 22.52 46.5577 21.92 44.9044 21.92ZM62.9813 38H58.5013V10.2L62.9813 9.76V20.4C64.0213 19.6533 65.1279 19.0667 66.3013 18.64C67.5013 18.1867 68.6346 17.96 69.7013 17.96C71.3279 17.96 72.6079 18.2933 73.5413 18.96C74.4746 19.6 75.1413 20.4933 75.5413 21.64C75.9413 22.7867 76.1413 24.08 76.1413 25.52V38H71.6613V25.8C71.6613 24.5467 71.4213 23.56 70.9413 22.84C70.4613 22.12 69.6879 21.76 68.6213 21.76C67.6346 21.76 66.6479 22.04 65.6613 22.6C64.6746 23.16 63.7813 23.7733 62.9813 24.44V38ZM97.6003 29.48H84.1603C84.347 31.0267 84.907 32.28 85.8403 33.24C86.8003 34.2 88.307 34.68 90.3603 34.68C91.507 34.68 92.507 34.52 93.3603 34.2C94.2136 33.88 95.1203 33.4667 96.0803 32.96L97.4403 36.24C96.507 36.88 95.4536 37.4133 94.2803 37.84C93.1336 38.2667 91.8003 38.48 90.2803 38.48C86.6803 38.48 83.9736 37.56 82.1603 35.72C80.347 33.8533 79.4403 31.3733 79.4403 28.28C79.4403 26.2533 79.8136 24.48 80.5603 22.96C81.3336 21.4133 82.427 20.2133 83.8403 19.36C85.2536 18.5067 86.947 18.08 88.9203 18.08C90.947 18.08 92.6003 18.56 93.8803 19.52C95.1603 20.48 96.0936 21.76 96.6803 23.36C97.2936 24.9333 97.6003 26.6533 97.6003 28.52V29.48ZM84.2403 26.48H93.2803C93.0403 25.0133 92.547 23.8933 91.8003 23.12C91.0803 22.32 90.0803 21.92 88.8003 21.92C87.5203 21.92 86.4803 22.32 85.6803 23.12C84.907 23.92 84.427 25.04 84.2403 26.48ZM105.472 38H100.992V18.6H103.392L104.872 21.8C105.379 21.3467 106.005 20.88 106.752 20.4C107.525 19.8933 108.325 19.4667 109.152 19.12C109.979 18.7733 110.739 18.6 111.432 18.6L112.352 22.2C111.392 22.2 110.259 22.5467 108.952 23.24C107.672 23.9067 106.512 24.7067 105.472 25.64V38Z" fill="#99BAED"/>
</svg>
