<svg width="163" height="103" viewBox="0 0 163 103" fill="none" xmlns="http://www.w3.org/2000/svg">
<path d="M76.12 73.48C78.0933 72.6 79.96 72.16 81.72 72.16C84.0133 72.16 85.1867 73.5067 85.24 76.2H81C78.84 76.2 77.0933 76.7333 75.76 77.8C74.4533 78.8667 73.8 80.3733 73.8 82.32C73.8 84.1867 74.3733 85.68 75.52 86.8C76.6933 87.92 78.4 88.48 80.64 88.48C81.6 88.48 82.56 88.2533 83.52 87.8C84.48 87.3467 85.3333 86.76 86.08 86.04L86.76 88H89.76V75.04C89.76 73.7333 89.4 72.56 88.68 71.52C87.96 70.4533 86.9733 69.6133 85.72 69C84.4933 68.3867 83.1333 68.08 81.64 68.08C80.7333 68.08 79.5467 68.2533 78.08 68.6C76.64 68.9467 75.5733 69.3467 74.88 69.8L76.12 73.48ZM77.72 82.32C77.72 81.44 78 80.7067 78.56 80.12C79.1467 79.5067 79.9333 79.2 80.92 79.2H85.28V82.68C84.6133 83.3733 83.8667 83.92 83.04 84.32C82.2133 84.72 81.3867 84.92 80.56 84.92C79.68 84.92 78.9867 84.6667 78.48 84.16C77.9733 83.6267 77.72 83.0133 77.72 82.32ZM98.7219 75.64C99.7885 74.68 100.962 73.8667 102.242 73.2C103.522 72.5333 104.642 72.2 105.602 72.2L104.682 68.6C103.749 68.6 102.655 68.9333 101.402 69.6C100.175 70.2667 99.0819 71 98.1219 71.8L96.6419 68.6H94.2419V88H98.7219V75.64ZM116.984 68.08C118.958 68.08 120.678 68.5067 122.144 69.36C123.611 70.1867 124.731 71.3733 125.504 72.92C126.304 74.4667 126.704 76.28 126.704 78.36C126.704 80.36 126.304 82.1333 125.504 83.68C124.704 85.2 123.558 86.3867 122.064 87.24C120.598 88.0933 118.878 88.52 116.904 88.52C116.184 88.52 115.371 88.36 114.464 88.04C113.584 87.72 112.758 87.2933 111.984 86.76L111.064 88H108.704V60.2L113.184 59.76V69.12C114.491 68.4267 115.758 68.08 116.984 68.08ZM116.904 84.64C118.504 84.64 119.758 84.0533 120.664 82.88C121.598 81.7067 122.064 80.2 122.064 78.36C122.064 76.44 121.611 74.8933 120.704 73.72C119.798 72.52 118.531 71.92 116.904 71.92C116.211 71.92 115.558 72.0267 114.944 72.24C114.358 72.4533 113.771 72.7733 113.184 73.2V83.44C114.278 84.24 115.518 84.64 116.904 84.64ZM147.061 78.16C147.061 75.2267 146.328 72.8133 144.861 70.92C143.395 69.0267 141.235 68.08 138.381 68.08C136.435 68.08 134.741 68.5067 133.301 69.36C131.888 70.2133 130.795 71.4133 130.021 72.96C129.275 74.48 128.901 76.2533 128.901 78.28C128.901 81.4267 129.821 83.92 131.661 85.76C133.528 87.5733 136.221 88.48 139.741 88.48C142.355 88.48 144.741 87.7333 146.901 86.24L145.541 82.96C144.395 83.5467 143.408 83.9867 142.581 84.28C141.781 84.5467 140.861 84.68 139.821 84.68C136.088 84.68 134.021 82.9467 133.621 79.48H147.061V78.16ZM133.701 76.48C133.888 75.04 134.368 73.92 135.141 73.12C135.941 72.32 136.981 71.92 138.261 71.92C139.515 71.92 140.515 72.3067 141.261 73.08C142.008 73.8533 142.501 74.9867 142.741 76.48H133.701ZM154.933 75.64C155.999 74.68 157.173 73.8667 158.453 73.2C159.733 72.5333 160.853 72.2 161.813 72.2L160.893 68.6C159.959 68.6 158.866 68.9333 157.613 69.6C156.386 70.2667 155.293 71 154.333 71.8L152.853 68.6H150.453V88H154.933V75.64Z" fill="#99BAED"/>
<g clip-path="url(#clip0)">
<path d="M50.5803 7.77584C44.6236 8.29699 40.0962 13.5571 40.6169 19.5145L43.2968 50.1482L33.162 54.8735C29.7678 48.9757 22.3668 46.5552 16.0846 49.485C9.45122 52.5794 6.58174 60.4628 9.67428 67.0971C12.768 73.7299 20.6523 76.6013 27.2873 73.5076C31.8398 71.3846 34.6184 67.0039 34.9143 62.3216L47.3265 56.5333L48.5196 70.1754C44.6133 72.7733 42.209 77.3698 42.6457 82.3736C43.2841 89.6662 49.7121 95.0582 57.003 94.4212C64.2956 93.7827 69.6885 87.3552 69.0511 80.0643C68.447 73.1594 62.6501 67.9605 55.8458 67.969L54.8707 56.8294L82.7388 43.8338C88.1593 41.3065 90.4502 34.7552 87.9231 29.3359L53.8559 45.2238L50.5803 7.77584ZM27.6756 64.9207C25.7785 68.2067 21.5764 69.3326 18.2905 67.4355C15.0045 65.5383 13.8787 61.3362 15.7758 58.0503C17.6733 54.7636 21.8749 53.6385 25.1609 55.5356C28.4468 57.4327 29.5732 61.634 27.6756 64.9207ZM61.7886 84.6158C59.8914 87.9018 55.6894 89.0277 52.4034 87.1306C49.1175 85.2334 47.9916 81.0314 49.8887 77.7455C51.7863 74.4588 55.9879 73.3336 59.2738 75.2307C62.5597 77.1278 63.6861 81.3291 61.7886 84.6158Z" fill="#99BAED"/>
</g>
<defs>
<clipPath id="clip0">
<rect width="74.2244" height="74.2244" fill="white" transform="translate(0 64.2803) rotate(-60)"/>
</clipPath>
</defs>
</svg>
